PathFileType  4	(X/Y/Z)
DataRate	CameraRate	NumFrames	NumMarkers	Units	OrigDataRate	OrigDataStartFrame	OrigNumFrames
  200.0 	  200.0 	   4 	     50 	mm 	  200.0 	      753 	   1204
Frame#	Time	R.Shoulder			R.Clavicle			R.Bicep			R.Elbow			R.Forearm			R.Wrist			L.Shoulder			L.Clavicle			L.Scapula			L.Bicep			L.Elbow			L.Forearm			L.Wrist			R.ASIS			R.PSIS			S2			L.PSIS			L.ASIS			R.TH1			R.TH2			R.TH3			R.Knee			R.SH1			R.SH2			R.SH3			R.SH4			R.Ankle			R.Heel			R.MT5			L.TH1			L.TH2			L.TH3			L.TH4			L.Knee			L.SH1			L.SH2			L.SH3			L.Ankle			L.Heel			L.MT5			R.Melb			R.GTR			R.Mkn			R.Man			R.MT0			L.Melb			L.GTR			L.Mkn			L.Man			L.MT0			
		X1	Y1	Z1	X2	Y2	Z2	X3	Y3	Z3	X4	Y4	Z4	X5	Y5	Z5	X6	Y6	Z6	X7	Y7	Z7	X8	Y8	Z8	X9	Y9	Z9	X10	Y10	Z10	X11	Y11	Z11	X12	Y12	Z12	X13	Y13	Z13	X14	Y14	Z14	X15	Y15	Z15	X16	Y16	Z16	X17	Y17	Z17	X18	Y18	Z18	X19	Y19	Z19	X20	Y20	Z20	X21	Y21	Z21	X22	Y22	Z22	X23	Y23	Z23	X24	Y24	Z24	X25	Y25	Z25	X26	Y26	Z26	X27	Y27	Z27	X28	Y28	Z28	X29	Y29	Z29	X30	Y30	Z30	X31	Y31	Z31	X32	Y32	Z32	X33	Y33	Z33	X34	Y34	Z34	X35	Y35	Z35	X36	Y36	Z36	X37	Y37	Z37	X38	Y38	Z38	X39	Y39	Z39	X40	Y40	Z40	X41	Y41	Z41	X42	Y42	Z42	X43	Y43	Z43	X44	Y44	Z44	X45	Y45	Z45	X46	Y46	Z46	X47	Y47	Z47	X48	Y48	Z48	X49	Y49	Z49	X50	Y50	Z50	

753	3.76000	536.004	1605.353	-1931.028	616.377	1600.260	-2080.885	585.853	1396.753	-1883.221	468.644	1305.592	-1852.387	549.710	1246.906	-1763.114	502.900	1132.459	-1731.262	567.898	1610.076	-2307.203	626.002	1600.674	-2137.766	443.158	1576.543	-2214.532	613.844	1454.024	-2353.971	517.451	1316.909	-2412.279	582.662	1254.177	-2480.126	546.405	1135.802	-2504.558	658.670	1151.145	-1987.043	428.364	1226.792	-2067.855	419.916	1220.790	-2120.781	433.222	1229.105	-2174.041	657.020	1140.231	-2242.535	596.539	945.303	-1906.057	445.624	959.074	-1935.504	441.977	883.979	-1942.724	494.627	736.495	-1913.355	519.277	604.298	-1881.338	519.584	529.573	-1887.668	410.036	610.133	-1929.090	408.543	533.990	-1924.502	482.090	333.091	-1893.870	416.070	299.521	-1943.346	601.401	276.147	-1863.840	600.208	907.469	-2312.092	603.542	826.475	-2299.027	451.663	908.470	-2306.053	446.408	832.047	-2300.490	498.034	727.313	-2312.870	540.145	641.702	-2334.039	429.045	642.665	-2319.920	424.041	566.837	-2335.910	505.398	338.185	-2357.457	421.703	297.070	-2325.747	604.787	278.567	-2384.176	536.664	1274.451	-1926.890	537.828	1094.467	-1892.470	511.099	693.990	-2077.660	506.595	337.232	-1984.805	618.610	279.285	-1978.604	589.417	1270.896	-2320.498	527.125	1112.193	-2324.369	499.536	695.114	-2145.813	511.402	333.958	-2261.604	624.109	279.321	-2261.499
754	3.76500	536.041	1605.364	-1931.026	616.396	1600.262	-2080.883	585.874	1396.756	-1883.229	468.708	1305.556	-1852.327	549.734	1246.909	-1763.118	502.904	1132.457	-1731.278	567.909	1610.074	-2307.197	626.010	1600.674	-2137.760	443.156	1576.547	-2214.534	613.849	1454.021	-2353.970	517.468	1316.897	-2412.276	582.664	1254.176	-2480.126	546.401	1135.784	-2504.549	658.668	1151.147	-1987.031	428.364	1226.792	-2067.855	419.899	1220.810	-2120.815	433.218	1229.103	-2174.038	657.016	1140.232	-2242.532	596.533	945.309	-1906.018	445.619	959.075	-1935.506	441.981	883.975	-1942.724	494.627	736.498	-1913.352	519.222	604.286	-1881.425	519.580	529.570	-1887.666	410.036	610.132	-1929.093	408.543	533.991	-1924.501	482.095	333.087	-1893.870	416.071	299.522	-1943.344	601.396	276.153	-1863.841	600.216	907.473	-2312.083	603.535	826.474	-2299.025	451.664	908.468	-2306.051	446.401	832.051	-2300.488	498.028	727.311	-2312.857	540.145	641.705	-2334.040	429.058	642.665	-2319.910	424.040	566.839	-2335.907	505.401	338.182	-2357.450	421.704	297.069	-2325.744	604.788	278.568	-2384.176	536.667	1274.446	-1926.903	537.822	1094.469	-1892.463	511.102	693.990	-2077.660	506.589	337.229	-1984.805	618.603	279.286	-1978.603	589.416	1270.872	-2320.490	527.127	1112.202	-2324.347	499.616	695.128	-2145.787	511.401	333.958	-2261.609	624.108	279.321	-2261.502
755	3.77000	536.074	1605.374	-1931.024	616.413	1600.263	-2080.880	585.896	1396.758	-1883.236	468.778	1305.516	-1852.264	549.759	1246.911	-1763.123	502.909	1132.455	-1731.295	567.919	1610.073	-2307.190	626.017	1600.673	-2137.754	443.154	1576.552	-2214.536	613.854	1454.018	-2353.968	517.483	1316.886	-2412.273	582.666	1254.176	-2480.127	546.397	1135.767	-2504.540	658.667	1151.149	-1987.020	428.364	1226.792	-2067.855	419.881	1220.829	-2120.848	433.215	1229.101	-2174.035	657.014	1140.232	-2242.528	596.527	945.314	-1905.981	445.615	959.076	-1935.509	441.986	883.971	-1942.723	494.627	736.501	-1913.349	519.164	604.273	-1881.520	519.576	529.567	-1887.666	410.035	610.132	-1929.096	408.544	533.991	-1924.499	482.100	333.085	-1893.871	416.070	299.522	-1943.345	601.390	276.160	-1863.843	600.225	907.477	-2312.073	603.528	826.473	-2299.022	451.666	908.466	-2306.049	446.393	832.055	-2300.486	498.021	727.309	-2312.844	540.146	641.707	-2334.041	429.069	642.666	-2319.902	424.039	566.840	-2335.904	505.404	338.180	-2357.443	421.704	297.069	-2325.742	604.787	278.568	-2384.176	536.668	1274.442	-1926.917	537.817	1094.471	-1892.457	511.104	693.990	-2077.660	506.582	337.224	-1984.805	618.594	279.287	-1978.601	589.416	1270.849	-2320.483	527.129	1112.211	-2324.326	499.671	695.138	-2145.770	511.399	333.958	-2261.614	624.107	279.322	-2261.505
756	3.77500	536.104	1605.384	-1931.021	616.429	1600.264	-2080.878	585.919	1396.760	-1883.242	468.853	1305.474	-1852.199	549.785	1246.913	-1763.129	502.915	1132.451	-1731.314	567.927	1610.072	-2307.182	626.024	1600.672	-2137.749	443.153	1576.556	-2214.538	613.858	1454.016	-2353.967	517.496	1316.877	-2412.269	582.668	1254.176	-2480.129	546.395	1135.749	-2504.529	658.665	1151.151	-1987.009	428.364	1226.792	-2067.855	419.863	1220.848	-2120.879	433.212	1229.099	-2174.035	657.013	1140.232	-2242.524	596.520	945.320	-1905.947	445.611	959.078	-1935.511	441.993	883.967	-1942.721	494.628	736.505	-1913.345	519.102	604.258	-1881.620	519.572	529.563	-1887.666	410.035	610.132	-1929.099	408.545	533.990	-1924.496	482.105	333.083	-1893.872	416.069	299.520	-1943.349	601.384	276.166	-1863.844	600.234	907.481	-2312.064	603.520	826.470	-2299.018	451.667	908.463	-2306.046	446.386	832.059	-2300.485	498.014	727.307	-2312.831	540.146	641.709	-2334.042	429.079	642.667	-2319.894	424.038	566.841	-2335.902	505.406	338.178	-2357.437	421.705	297.069	-2325.740	604.787	278.569	-2384.175	536.668	1274.438	-1926.930	537.811	1094.473	-1892.449	511.105	693.991	-2077.660	506.575	337.220	-1984.805	618.583	279.287	-1978.600	589.416	1270.827	-2320.476	527.133	1112.219	-2324.307	499.702	695.145	-2145.763	511.397	333.959	-2261.621	624.107	279.323	-2261.507
